<?xml version="1.0" standalone="no"?>
<!DOCTYPE svg PUBLIC "-//W3C//DTD SVG 20010904//EN"
 "http://www.w3.org/TR/2001/REC-SVG-20010904/DTD/svg10.dtd">
<svg version="1.0" xmlns="http://www.w3.org/2000/svg"
 width="1072.000000pt" height="328.000000pt" viewBox="0 0 1072.000000 328.000000"
 preserveAspectRatio="xMidYMid meet">

<g transform="translate(0.000000,328.000000) scale(0.100000,-0.100000)"
fill="#000000" stroke="none">
<path d="M7595 3097 c-16 -12 -35 -26 -41 -32 -6 -5 -30 -26 -54 -45 -24 -19
-49 -41 -56 -47 -7 -7 -16 -13 -20 -13 -3 0 -23 -15 -43 -32 -20 -18 -52 -44
-71 -58 -39 -29 -193 -152 -200 -161 -3 -3 -32 -25 -64 -50 -33 -24 -71 -54
-84 -66 -14 -13 -29 -23 -33 -23 -5 0 -9 -304 -9 -675 0 -371 4 -675 9 -675 4
0 19 -10 33 -22 14 -13 45 -39 69 -58 24 -19 46 -38 47 -42 2 -4 10 -8 17 -8
7 0 15 -3 17 -7 2 -5 31 -30 66 -58 35 -27 71 -57 81 -65 10 -8 33 -26 51 -40
19 -14 52 -40 74 -58 23 -17 46 -35 51 -40 20 -14 137 -107 162 -129 29 -23
41 -21 80 16 12 12 27 21 33 21 5 0 10 4 10 8 0 5 19 22 43 40 23 17 62 47 87
67 25 20 59 47 75 60 17 13 41 33 54 44 13 12 27 21 30 21 4 0 20 12 37 28 17
15 46 38 64 52 18 14 50 39 70 55 20 17 52 42 71 57 19 14 46 37 62 50 l27 24
0 660 c0 648 0 660 -20 677 -11 9 -24 17 -29 17 -5 0 -11 4 -13 9 -1 5 -46 44
-98 86 -52 42 -96 81 -98 86 -2 5 -10 9 -17 9 -7 0 -15 3 -17 8 -1 4 -23 23
-48 42 -66 52 -132 104 -185 148 -11 10 -40 32 -65 51 -25 19 -49 40 -55 46
-13 14 -58 45 -65 45 -3 0 -18 -11 -35 -23z m69 -141 c17 -13 41 -32 53 -42
12 -11 44 -37 72 -59 28 -22 51 -43 51 -47 0 -5 6 -8 14 -8 8 0 16 -3 18 -8 2
-4 23 -23 48 -42 25 -19 47 -37 50 -40 3 -3 41 -34 85 -68 121 -95 145 -115
171 -138 l24 -21 0 -587 c0 -496 -2 -590 -14 -602 -8 -8 -17 -14 -21 -14 -3 0
-18 -12 -33 -28 -15 -15 -54 -47 -87 -71 -33 -25 -62 -47 -65 -51 -3 -3 -23
-19 -45 -35 -22 -17 -42 -32 -45 -36 -3 -3 -32 -25 -65 -50 -33 -24 -64 -49
-70 -55 -5 -6 -48 -40 -95 -75 -82 -62 -86 -64 -105 -47 -11 10 -58 47 -105
83 -47 37 -92 72 -100 79 -9 6 -42 32 -75 56 -33 25 -67 52 -75 60 -29 27 -65
55 -125 100 -33 25 -71 55 -85 68 -14 12 -28 22 -32 22 -5 0 -8 267 -8 593 l1
592 84 64 c47 35 96 73 109 85 52 45 79 67 122 98 24 17 44 35 44 40 0 4 7 8
15 8 8 0 15 3 15 8 0 4 20 21 45 37 24 17 45 33 45 36 0 4 17 18 38 32 21 14
54 39 73 56 18 17 35 31 38 31 2 0 18 -11 35 -24z"/>
<path d="M7670 2775 c0 -15 3 -15 16 -5 12 11 15 11 12 0 -2 -8 5 -16 15 -18
11 -2 17 2 16 15 0 10 -3 13 -6 6 -6 -16 -24 -17 -20 -1 1 6 -6 14 -15 16 -12
2 -18 -3 -18 -13z"/>
<path d="M7500 2770 c-8 -5 -10 -10 -5 -10 6 0 2 -5 -7 -11 -18 -10 -26 -79
-10 -79 17 0 22 13 11 27 -9 9 -8 13 0 13 6 0 11 5 11 11 0 5 -4 7 -10 4 -21
-13 -8 11 15 28 22 16 26 16 31 3 3 -9 14 -16 23 -15 10 0 11 2 3 6 -6 2 -9
10 -6 15 4 7 2 8 -4 4 -7 -4 -12 -2 -12 3 0 14 -20 14 -40 1z"/>
<path d="M7746 2771 c-4 -7 -5 -15 -2 -18 9 -9 19 4 14 18 -4 11 -6 11 -12 0z"/>
<path d="M7702 2728 c-20 -20 -12 -88 9 -88 12 0 11 57 -1 65 -6 4 -8 11 -4
16 3 5 10 7 15 4 5 -4 9 -1 9 4 0 14 -13 14 -28 -1z"/>
<path d="M7553 2703 c3 -13 -1 -27 -9 -34 -14 -12 -10 -29 7 -29 6 0 7 5 4 10
-3 6 -1 10 5 10 6 0 9 4 6 9 -4 5 -2 11 3 13 5 1 3 12 -6 23 -15 20 -15 20
-10 -2z"/>
<path d="M7866 2703 c-9 -9 -7 -41 3 -47 4 -3 7 5 6 19 -2 17 1 22 12 18 12
-5 12 -8 1 -15 -10 -7 -9 -8 5 -4 11 3 17 0 17 -9 0 -18 17 -28 31 -19 8 4 4
13 -12 26 -36 28 -56 38 -63 31z"/>
<path d="M7342 2655 c-11 -13 -9 -15 8 -15 14 0 19 4 14 13 -4 6 -3 8 1 4 11
-10 16 -39 5 -32 -6 4 -23 -22 -21 -32 2 -6 11 -2 13 5 0 4 8 12 17 19 12 9
13 16 5 29 -14 24 -26 26 -42 9z"/>
<path d="M7495 2659 c-4 -6 -5 -12 -2 -15 2 -3 7 2 10 11 7 17 1 20 -8 4z"/>
<path d="M7845 2640 c2 -11 0 -20 -6 -20 -5 0 -9 -9 -9 -20 0 -14 5 -18 17
-13 11 4 14 3 9 -5 -4 -7 -2 -12 3 -12 14 0 14 17 1 25 -6 3 -8 17 -6 30 3 14
1 27 -4 30 -5 3 -7 -4 -5 -15z"/>
<path d="M7510 2640 c0 -5 5 -10 11 -10 5 0 7 5 4 10 -3 6 -8 10 -11 10 -2 0
-4 -4 -4 -10z"/>
<path d="M7887 2628 c7 -8 9 -19 5 -23 -4 -5 -2 -5 5 -2 6 4 14 1 16 -5 4 -9
6 -8 6 2 1 8 -9 21 -21 29 -20 13 -22 12 -11 -1z"/>
<path d="M7290 2613 c0 -8 6 -16 13 -19 8 -3 14 -10 14 -17 0 -21 35 -69 44
-60 11 11 -1 54 -12 47 -5 -3 -6 -10 -3 -16 5 -7 2 -8 -5 -4 -7 5 -10 14 -7
22 3 7 1 16 -5 20 -5 3 -7 14 -4 24 5 14 1 18 -15 17 -11 -1 -20 -7 -20 -14z"/>
<path d="M7877 2563 c-3 -5 1 -13 8 -20 10 -10 14 -9 18 1 8 21 -15 37 -26 19z"/>
<path d="M8033 2533 c4 -3 2 -12 -5 -20 -6 -7 -8 -16 -4 -20 3 -3 6 -1 6 6 0
7 5 9 10 6 6 -3 10 3 10 14 0 12 -5 21 -12 21 -6 0 -8 -3 -5 -7z"/>
<path d="M7997 2505 c-4 -8 -3 -16 1 -19 4 -3 9 4 9 15 2 23 -3 25 -10 4z"/>
<path d="M7963 2472 c-7 -13 -7 -21 2 -29 10 -9 14 -9 19 3 3 9 1 12 -4 9 -6
-3 -10 -2 -10 4 0 5 5 11 12 13 7 3 8 7 2 11 -5 3 -15 -2 -21 -11z"/>
<path d="M8016 2464 c-5 -14 -4 -15 9 -4 17 14 19 20 6 20 -5 0 -12 -7 -15
-16z"/>
<path d="M7179 2453 c-11 -13 -11 -17 -1 -20 6 -3 12 -13 12 -24 0 -10 5 -19
10 -19 14 0 12 12 -6 38 -15 21 -14 22 13 22 17 0 33 -8 41 -20 15 -24 28 -26
36 -4 5 12 1 14 -17 8 -12 -3 -19 -3 -15 1 9 10 -21 34 -43 35 -9 0 -23 -7
-30 -17z"/>
<path d="M7563 2459 c10 -6 24 -8 31 -6 8 3 13 -1 12 -11 -1 -13 8 -17 36 -18
21 -1 35 3 32 7 -2 5 -18 6 -34 2 -20 -4 -30 -1 -30 7 0 7 7 10 15 6 9 -3 15
0 15 7 0 9 -17 14 -47 15 -39 2 -44 0 -30 -9z"/>
<path d="M7653 2457 c-4 -6 0 -8 10 -4 18 7 42 -24 29 -38 -4 -4 5 -5 20 -1
15 3 29 2 32 -3 3 -5 15 -11 26 -14 13 -3 18 -1 13 6 -4 7 0 8 13 3 13 -5 16
-4 9 3 -6 6 -22 12 -35 13 -25 3 -40 15 -40 32 0 5 7 3 15 -4 9 -7 18 -10 21
-7 3 3 -3 10 -14 16 -24 13 -91 11 -99 -2z m62 -7 c-3 -5 -1 -10 5 -10 6 0 8
-5 5 -10 -4 -6 -11 -8 -16 -5 -12 8 -11 35 2 35 5 0 7 -4 4 -10z"/>
<path d="M8070 2460 c0 -6 -4 -9 -9 -5 -5 3 -12 1 -16 -4 -3 -6 4 -8 16 -6 27
5 33 11 20 20 -6 3 -11 1 -11 -5z"/>
<path d="M7512 2451 c-11 -7 -10 -9 3 -14 9 -4 14 -3 10 2 -3 5 1 12 7 14 7 3
9 6 3 6 -5 0 -16 -3 -23 -8z"/>
<path d="M7475 2430 c-4 -6 -10 -8 -15 -5 -17 11 -19 -13 -2 -26 9 -7 14 -9 9
-4 -4 4 0 17 10 27 9 10 13 18 10 18 -3 0 -9 -5 -12 -10z"/>
<path d="M7810 2432 c0 -7 4 -12 10 -12 5 0 16 -13 24 -29 13 -23 13 -30 2
-34 -7 -3 -13 -23 -14 -47 -1 -23 -4 -45 -7 -50 -2 -4 5 -16 17 -26 12 -11 18
-13 14 -6 -4 6 -2 12 3 12 6 0 11 14 11 31 0 27 -2 30 -15 19 -19 -16 -19 -1
0 27 21 31 15 69 -17 100 -15 15 -28 21 -28 15z m50 -86 c0 -3 -4 -8 -10 -11
-5 -3 -10 -1 -10 4 0 6 5 11 10 11 6 0 10 -2 10 -4z"/>
<path d="M8016 2420 c-14 -45 -16 -61 -7 -55 5 3 12 -3 14 -12 3 -10 4 -3 4
16 -1 19 4 36 11 39 6 2 12 8 12 13 0 6 -4 8 -9 5 -5 -4 -11 -1 -13 6 -3 7 -8
1 -12 -12z"/>
<path d="M7492 2418 c-15 -15 -15 -28 0 -28 6 0 8 3 5 7 -4 3 -2 12 4 20 14
16 7 17 -9 1z"/>
<path d="M7540 2420 c0 -5 5 -10 10 -10 6 0 10 5 10 10 0 6 -4 10 -10 10 -5 0
-10 -4 -10 -10z"/>
<path d="M7230 2406 c0 -9 0 -18 0 -21 0 -3 3 -5 7 -5 10 -1 12 29 2 36 -5 3
-9 -2 -9 -10z"/>
<path d="M7406 2386 c-11 -18 -13 -27 -4 -32 7 -4 8 -3 4 4 -6 11 20 18 47 13
5 -1 6 3 2 8 -3 6 -12 8 -20 4 -11 -4 -13 -1 -9 11 9 24 -1 19 -20 -8z"/>
<path d="M7200 2372 c0 -4 6 -17 14 -28 11 -14 18 -16 26 -8 8 8 4 15 -14 28
-15 9 -26 13 -26 8z"/>
<path d="M7815 2370 c-3 -6 1 -7 9 -4 18 7 21 14 7 14 -6 0 -13 -4 -16 -10z"/>
<path d="M7428 2355 c-3 -6 -4 -20 -3 -33 1 -13 -3 -21 -9 -19 -6 2 -10 11 -8
21 2 9 -2 16 -8 16 -22 0 -4 -35 29 -57 37 -25 51 -29 51 -12 0 5 -4 7 -10 4
-5 -3 -10 1 -10 9 0 9 9 16 21 16 12 0 17 -4 13 -11 -4 -6 4 -5 17 2 23 13 23
14 -21 19 -37 4 -45 9 -50 30 -3 14 -8 20 -12 15z m22 -62 c0 -19 -13 -9 -16
12 -1 8 2 13 7 9 5 -3 9 -12 9 -21z"/>
<path d="M7597 2313 c-4 -3 -2 -12 4 -20 9 -10 8 -13 -2 -13 -11 0 -11 -2 1
-10 11 -8 8 -9 -12 -4 -18 4 -28 2 -28 -5 0 -13 56 -15 65 -1 3 5 13 6 22 3
10 -4 5 6 -12 25 -32 36 -29 34 -38 25z m33 -34 c0 -5 -5 -9 -12 -9 -6 0 -8 3
-5 7 4 3 1 13 -6 22 -11 14 -10 14 6 2 9 -7 17 -17 17 -22z"/>
<path d="M7556 2296 c3 -9 11 -16 16 -16 13 0 5 23 -10 28 -7 2 -10 -2 -6 -12z"/>
<path d="M7667 2274 c6 -15 23 -19 23 -5 0 5 -7 11 -14 14 -10 4 -13 1 -9 -9z"/>
<path d="M7528 2263 c7 -3 16 -2 19 1 4 3 -2 6 -13 5 -11 0 -14 -3 -6 -6z"/>
<path d="M7314 2219 c-5 -9 1 -10 22 -6 16 3 23 4 16 1 -10 -5 -8 -12 9 -30
12 -13 19 -24 15 -24 -4 0 -2 -6 3 -12 47 -58 60 -71 61 -60 0 6 -5 12 -11 12
-8 0 -8 4 0 14 13 15 -1 32 -18 22 -5 -3 -14 8 -21 24 -7 17 -17 30 -22 30 -5
0 -8 5 -6 11 3 8 68 12 220 13 119 1 215 -1 213 -4 -2 -3 3 -14 11 -25 8 -10
14 -14 14 -8 0 7 -5 15 -11 18 -6 5 -4 12 8 20 15 12 -22 14 -239 15 -186 0
-258 -3 -264 -11z"/>
<path d="M7872 2225 c3 -3 15 -7 27 -10 11 -2 26 -7 33 -11 7 -5 8 -3 3 6 -6
10 -4 12 8 7 9 -3 19 -2 22 3 4 6 -15 10 -46 10 -29 0 -50 -2 -47 -5z"/>
<path d="M7886 2199 c3 -5 -3 -9 -13 -10 -14 0 -13 -2 5 -10 13 -5 28 -6 33
-3 15 9 6 27 -14 30 -9 1 -15 -2 -11 -7z"/>
<path d="M7767 2193 c-11 -11 -8 -20 7 -20 8 0 12 6 9 14 -6 15 -7 15 -16 6z"/>
<path d="M7480 2140 c0 -5 5 -10 11 -10 5 0 7 5 4 10 -3 6 -8 10 -11 10 -2 0
-4 -4 -4 -10z"/>
<path d="M7844 2122 c-1 -15 1 -21 3 -14 3 6 9 9 15 6 6 -4 5 2 -1 15 -15 27
-16 27 -17 -7z"/>
<path d="M7466 2071 c-4 -5 -2 -12 4 -16 5 -3 10 -3 10 0 0 4 7 -1 16 -9 17
-18 44 -21 44 -7 0 6 -5 13 -12 17 -7 4 -8 3 -4 -4 12 -19 -6 -14 -30 9 -13
12 -24 16 -28 10z"/>
<path d="M7620 2070 c-8 -5 -12 -12 -9 -15 4 -3 12 1 19 10 14 17 11 19 -10 5z"/>
<path d="M7765 2071 c-3 -5 1 -12 7 -15 7 -3 2 -4 -11 -3 -14 1 -26 -4 -28
-13 -4 -12 -3 -12 5 -1 6 8 11 9 13 3 3 -7 11 -7 25 1 18 10 20 14 9 24 -8 7
-16 9 -20 4z"/>
<path d="M7673 2055 c0 -8 5 -15 11 -15 6 0 4 -4 -4 -10 -9 -6 -17 -5 -23 3
-6 8 -7 6 -3 -5 4 -13 0 -18 -12 -18 -11 0 -13 -3 -6 -8 17 -10 23 -101 7 -95
-7 3 -16 -2 -19 -11 -4 -11 -13 -15 -28 -11 -20 6 -20 5 -2 -6 16 -10 22 -9
32 6 7 9 17 14 23 10 18 -10 13 -21 -16 -34 -21 -10 -24 -14 -12 -21 10 -7 16
-4 21 8 6 16 7 16 7 0 1 -9 5 -20 11 -23 6 -3 7 1 4 9 -9 23 13 19 26 -4 10
-19 6 -24 -14 -21 -5 1 -22 -1 -38 -4 l-29 -7 2 -81 c1 -45 0 -88 -2 -96 -2
-7 3 -15 11 -16 8 -2 23 -6 33 -10 19 -8 22 2 7 25 -6 10 -10 11 -10 3 0 -7
-5 -13 -11 -13 -6 0 -9 7 -6 15 4 8 2 17 -3 20 -6 3 -6 15 0 30 5 13 6 27 1
29 -10 6 -8 66 3 84 12 21 45 14 50 -10 12 -54 15 -60 12 -21 -2 22 1 46 6 51
7 7 3 18 -13 34 -21 21 -24 32 -22 99 0 40 5 73 10 72 4 0 13 4 19 11 7 8 6
16 -6 29 -14 14 -17 14 -17 2z"/>
<path d="M7635 2049 c-4 -6 -5 -12 -2 -15 2 -3 7 2 10 11 7 17 1 20 -8 4z"/>
<path d="M7565 1972 c-9 -9 -5 -32 5 -32 5 0 7 8 3 18 -4 13 -3 14 6 6 9 -8 9
-18 1 -40 -9 -24 -9 -27 2 -16 17 17 19 69 2 69 -8 0 -16 -3 -19 -5z"/>
<path d="M7625 1960 c-3 -5 -1 -10 4 -10 6 0 11 5 11 10 0 6 -2 10 -4 10 -3 0
-8 -4 -11 -10z"/>
<path d="M7610 1820 c0 -5 5 -10 11 -10 5 0 7 5 4 10 -3 6 -8 10 -11 10 -2 0
-4 -4 -4 -10z"/>
<path d="M7650 1780 c-9 -6 -10 -10 -3 -10 8 0 10 -14 8 -40 -2 -22 0 -42 4
-45 5 -2 9 20 9 50 0 30 -1 55 -2 55 0 0 -8 -5 -16 -10z"/>
<path d="M7716 1729 c2 -31 0 -38 -10 -30 -9 8 -13 7 -13 -3 0 -8 7 -13 16
-11 11 1 17 15 19 43 1 23 -1 42 -6 42 -5 0 -8 -18 -6 -41z"/>
<path d="M7673 1638 c-1 -10 2 -18 6 -18 5 0 11 8 13 18 3 10 0 19 -6 19 -7 0
-13 -9 -13 -19z"/>
<path d="M7570 1590 c-8 -5 -10 -10 -5 -10 6 0 3 -5 -5 -10 -9 -6 -10 -10 -3
-10 7 0 17 9 23 20 12 23 11 24 -10 10z"/>
<path d="M7632 1560 c0 -14 2 -19 5 -12 2 6 2 18 0 25 -3 6 -5 1 -5 -13z"/>
<path d="M7654 1520 c2 -49 1 -58 -10 -49 -8 6 -11 16 -7 22 4 6 1 7 -7 2 -9
-5 -10 -2 -6 11 3 11 1 26 -5 34 -8 11 -9 6 -7 -22 3 -25 0 -38 -8 -38 -6 0
-14 -7 -18 -15 -4 -11 1 -15 19 -15 19 0 23 4 19 18 -5 15 -4 15 8 1 7 -9 26
-18 43 -21 27 -6 28 -5 11 8 -16 11 -19 25 -17 69 1 30 -2 55 -8 55 -5 0 -8
-27 -7 -60z"/>
<path d="M7533 1550 c2 -8 10 -14 16 -12 15 3 14 -9 -4 -34 -8 -12 -11 -24 -8
-28 4 -3 12 7 19 24 17 39 17 45 2 45 -7 0 -17 5 -21 10 -5 6 -7 4 -4 -5z"/>
<path d="M7510 1504 c0 -23 1 -24 16 -10 8 9 12 20 9 26 -12 19 -25 10 -25
-16z"/>
<path d="M7770 1455 c-13 -14 -20 -28 -15 -32 4 -5 10 -2 12 5 3 7 12 19 20
28 8 8 13 17 11 19 -3 3 -15 -6 -28 -20z"/>
<path d="M7508 1403 c3 -16 11 -22 26 -21 13 1 23 8 23 15 0 10 -3 10 -15 0
-13 -10 -14 -9 -8 8 4 16 2 21 -12 21 -14 0 -17 -6 -14 -23z"/>
<path d="M7719 1414 c-16 -19 -20 -42 -9 -49 4 -2 7 5 6 17 0 12 5 23 12 25 8
3 10 -1 5 -14 -6 -16 -5 -16 11 -4 9 8 13 17 9 20 -4 4 -11 10 -14 14 -3 4
-12 0 -20 -9z"/>
<path d="M7659 1373 c-13 -16 -12 -17 4 -4 16 13 21 21 13 21 -2 0 -10 -8 -17
-17z"/>
<path d="M7600 1369 c-12 -8 -10 -9 9 -4 17 5 22 4 19 -6 -3 -8 -12 -13 -22
-11 -9 2 -16 -1 -16 -6 0 -10 65 -10 76 1 4 4 0 7 -9 7 -9 0 -17 7 -17 15 0
17 -18 19 -40 4z"/>
<path d="M7267 1364 c-13 -13 -7 -65 7 -70 8 -3 13 -14 11 -25 -2 -11 0 -17 6
-14 10 7 13 -8 3 -18 -11 -11 -53 24 -47 39 3 8 0 14 -6 14 -18 0 -13 -28 10
-51 22 -22 46 -19 55 6 4 8 -3 34 -14 58 -13 27 -17 46 -11 52 7 6 13 5 20 -5
9 -13 10 -13 6 0 -4 16 -29 25 -40 14z"/>
<path d="M7312 1313 c2 -9 9 -18 16 -21 18 -6 15 25 -4 32 -11 4 -14 1 -12
-11z"/>
<path d="M7930 1319 c-11 -8 -9 -9 10 -3 22 6 23 5 12 -9 -12 -14 -11 -15 11
-11 20 3 25 0 23 -13 -2 -10 -1 -12 1 -5 3 7 10 10 16 6 7 -3 -1 6 -16 20 -31
29 -36 30 -57 15z"/>
<path d="M7230 1310 c0 -5 5 -10 11 -10 5 0 7 5 4 10 -3 6 -8 10 -11 10 -2 0
-4 -4 -4 -10z"/>
<path d="M8025 1270 c3 -6 -1 -10 -9 -10 -8 0 -17 -4 -20 -8 -8 -13 30 -9 42
4 8 9 7 14 -4 18 -9 3 -12 1 -9 -4z"/>
<path d="M7941 1243 c0 -10 3 -13 5 -6 3 7 13 9 22 6 15 -4 15 -3 2 6 -22 15
-30 14 -29 -6z"/>
<path d="M7387 1243 c-12 -12 -7 -21 16 -28 12 -4 25 -7 30 -6 4 1 7 -6 7 -15
0 -8 5 -12 10 -9 16 10 -5 32 -37 40 -21 5 -24 8 -12 16 7 5 9 9 3 9 -6 0 -14
-3 -17 -7z"/>
<path d="M7850 1218 c6 -7 5 -18 -1 -30 -7 -13 -6 -18 3 -19 7 0 4 -4 -7 -8
-11 -5 -22 -5 -25 -1 -8 11 -40 20 -40 11 0 -5 10 -11 23 -15 18 -5 19 -8 7
-16 -12 -7 -10 -9 7 -7 12 0 19 5 17 9 -3 4 2 8 10 8 8 0 14 -6 12 -12 -1 -7
-1 -10 1 -5 3 4 9 5 13 2 5 -3 12 -1 15 5 4 6 1 9 -6 8 -7 -2 -12 9 -13 29 -1
18 -7 37 -13 43 -10 7 -10 7 -3 -2z"/>
<path d="M7957 1223 c-11 -10 -8 -53 3 -53 6 0 9 3 9 8 -1 4 0 9 1 12 11 31 4
50 -13 33z"/>
<path d="M7816 1211 c-4 -5 -2 -12 3 -15 5 -4 12 -2 15 3 4 5 2 12 -3 15 -5 4
-12 2 -15 -3z"/>
<path d="M7379 1199 c6 -9 7 -20 3 -24 -4 -5 -1 -5 6 -1 7 4 12 1 12 -7 0 -18
27 -30 35 -17 4 6 1 10 -5 10 -6 0 -23 12 -37 28 -14 15 -20 20 -14 11z"/>
<path d="M7780 1196 c0 -2 7 -7 16 -10 8 -3 12 -2 9 4 -6 10 -25 14 -25 6z"/>
<path d="M7512 1154 c-7 -7 -13 -17 -13 -21 -1 -5 -4 -14 -6 -21 -3 -7 -3 -23
-1 -37 3 -13 0 -26 -5 -28 -6 -2 -3 -6 7 -10 15 -6 17 -2 14 30 -2 22 2 38 10
41 6 2 12 -3 12 -10 0 -15 40 -58 53 -58 10 0 6 109 -3 115 -4 2 -6 -7 -4 -20
1 -14 -2 -25 -7 -25 -6 0 -8 -4 -5 -9 3 -5 0 -11 -7 -14 -9 -3 -13 3 -13 17 1
15 -4 20 -16 18 -22 -4 -23 2 -3 22 8 8 12 17 8 19 -5 3 -14 -1 -21 -9z m65
-89 c0 -11 -4 -12 -14 -4 -7 6 -13 13 -13 15 0 2 6 4 13 4 8 0 14 -7 14 -15z"/>
<path d="M7700 1161 c0 -5 -6 -9 -12 -8 -34 1 -48 -4 -48 -18 0 -8 5 -15 11
-15 5 0 8 4 5 9 -8 12 16 20 46 17 15 -2 25 2 25 11 0 7 -6 13 -14 13 -7 0
-13 -4 -13 -9z"/>
<path d="M7354 1145 c-18 -15 -18 -15 0 -26 10 -6 26 -19 36 -29 14 -14 20
-15 24 -5 2 7 -6 23 -19 35 -14 13 -22 27 -19 31 8 13 0 11 -22 -6z m56 -51
c0 -3 -13 4 -30 16 -16 12 -30 24 -30 26 0 3 14 -4 30 -16 17 -12 30 -24 30
-26z"/>
<path d="M7691 1122 c-1 -7 -5 -10 -11 -7 -5 3 -10 -1 -10 -10 0 -10 5 -13 12
-9 8 5 9 2 5 -10 -10 -25 2 -66 19 -66 8 0 14 5 14 11 0 5 -5 7 -11 3 -7 -4
-9 0 -6 12 4 11 2 35 -2 54 -5 19 -9 29 -10 22z m6 -64 c-3 -8 -6 -5 -6 6 -1
11 2 17 5 13 3 -3 4 -12 1 -19z"/>
<path d="M7800 1109 c0 -5 4 -8 9 -4 5 3 12 1 16 -5 3 -5 1 -10 -5 -10 -7 0
-10 -5 -8 -11 5 -14 23 -12 24 4 0 15 -15 37 -27 37 -5 0 -9 -5 -9 -11z"/>
<path d="M7874 1108 c-4 -5 -3 -12 0 -15 3 -4 6 -1 6 6 0 7 4 10 9 6 5 -3 12
-2 15 3 3 5 -2 9 -10 9 -8 0 -17 -4 -20 -9z"/>
<path d="M7558 1023 c7 -3 16 -2 19 1 4 3 -2 6 -13 5 -11 0 -14 -3 -6 -6z"/>
<path d="M4655 2643 c-11 -3 -24 -9 -29 -14 -6 -5 -16 -9 -24 -9 -27 0 -91
-61 -116 -112 -21 -42 -26 -66 -26 -129 0 -91 17 -145 62 -195 52 -58 118 -84
213 -83 52 0 95 6 123 18 50 20 102 60 102 78 0 7 4 13 9 13 4 0 17 21 27 48
21 54 25 195 6 214 -7 7 -12 21 -12 31 0 33 -91 111 -152 130 -51 16 -138 21
-183 10z m134 -94 c54 -58 56 -288 3 -350 -22 -26 -91 -26 -114 0 -47 55 -44
297 4 348 28 30 80 31 107 2z"/>
<path d="M3546 2598 c-8 -18 -24 -69 -37 -113 -12 -44 -25 -84 -29 -90 -4 -5
-10 -23 -14 -40 -16 -72 -58 -164 -77 -170 -14 -5 -19 -16 -19 -41 l0 -34 100
0 100 0 0 35 c0 28 -4 35 -19 35 -28 0 -34 15 -26 60 l7 40 69 0 c76 0 80 -3
83 -62 1 -29 -2 -33 -26 -36 -25 -3 -28 -8 -28 -38 l0 -34 280 0 280 0 0 35
c0 31 -3 35 -25 35 -33 0 -45 26 -45 99 l0 61 57 0 c145 0 219 38 230 118 10
72 -3 109 -49 140 -41 27 -42 27 -250 30 l-208 4 0 -36 c0 -33 2 -36 29 -36
17 0 31 -6 35 -16 12 -31 7 -339 -6 -352 -7 -7 -29 -12 -50 -12 -43 0 -59 21
-78 106 -7 27 -16 58 -21 69 -5 11 -13 38 -18 60 -6 22 -14 56 -20 75 -6 19
-17 58 -24 85 l-14 50 -86 3 -86 3 -15 -33z m667 -49 c30 -16 37 -28 37 -68 0
-50 -24 -71 -82 -71 l-48 0 0 68 c0 38 3 72 7 75 10 11 62 8 86 -4z m-587
-117 c23 -71 20 -82 -26 -82 -43 0 -45 2 -30 46 5 16 15 49 21 74 9 31 14 39
17 25 2 -11 10 -39 18 -63z"/>
<path d="M5050 2534 l0 -95 37 3 c34 3 38 6 44 38 8 40 41 70 75 70 l24 0 -2
-182 -3 -183 -37 -3 c-36 -3 -38 -5 -38 -38 l0 -34 160 0 160 0 0 35 c0 33 -2
35 -34 35 -22 0 -36 6 -40 16 -3 9 -6 92 -6 185 l0 169 23 0 c38 0 66 -28 73
-71 6 -36 9 -39 40 -39 l34 0 0 95 0 95 -255 0 -255 0 0 -96z"/>
<path d="M5592 2598 c2 -28 8 -34 31 -36 l27 -3 0 -190 0 -189 -30 0 c-28 0
-30 -3 -30 -35 l0 -35 255 0 255 0 0 110 0 110 -35 0 c-31 0 -35 -3 -44 -37
-6 -21 -11 -43 -11 -50 0 -7 -11 -24 -25 -38 -23 -22 -34 -25 -100 -25 l-75 0
0 85 c0 89 1 91 47 79 16 -4 23 -16 28 -45 6 -35 10 -39 36 -39 l29 0 0 115 0
115 -29 0 c-25 0 -31 -5 -36 -30 -7 -30 -30 -50 -59 -50 -13 0 -16 14 -16 75
l0 75 73 0 c67 0 75 -2 99 -27 14 -16 29 -43 33 -60 6 -30 10 -33 46 -33 l39
0 0 95 0 95 -256 0 -255 0 3 -32z"/>
<path d="M6160 2595 c0 -30 3 -35 24 -35 32 0 36 -18 36 -181 0 -173 -5 -199
-36 -199 -21 0 -24 -5 -24 -35 l0 -35 135 0 135 0 0 35 c0 28 -4 35 -20 35
-23 0 -40 29 -39 67 0 19 11 37 36 58 l36 29 23 -29 c34 -42 62 -98 57 -112
-3 -7 -16 -13 -29 -13 -21 0 -24 -5 -24 -35 l0 -35 145 0 145 0 0 35 c0 28 -4
35 -20 35 -22 0 -70 44 -70 65 0 8 -4 15 -8 15 -5 0 -18 19 -31 43 -27 53 -43
77 -58 95 -21 23 -15 38 35 86 44 42 83 67 125 80 11 4 17 16 17 36 l0 30
-135 0 -135 0 0 -35 c0 -32 2 -35 30 -35 23 0 30 -4 30 -20 0 -11 -3 -20 -7
-20 -5 0 -39 -29 -78 -65 -38 -36 -73 -65 -78 -65 -4 0 -7 35 -5 78 3 69 5 78
26 87 16 7 22 18 22 42 l0 33 -130 0 -130 0 0 -35z"/>
<path d="M4840 1786 c0 -9 30 -14 35 -6 4 6 -3 10 -14 10 -12 0 -21 -2 -21 -4z"/>
<path d="M4890 1781 c0 -5 10 -7 22 -3 16 4 19 2 13 -9 -7 -11 -5 -11 11 1 10
8 21 16 23 17 2 2 -12 3 -32 3 -20 0 -37 -4 -37 -9z"/>
<path d="M4986 1774 c-4 -9 0 -24 9 -34 8 -9 12 -20 8 -25 -5 -4 -2 -5 5 -1 7
4 9 13 5 19 -12 19 -12 36 -1 43 6 4 14 0 19 -7 7 -11 9 -10 9 4 0 22 -45 23
-54 1z"/>
<path d="M5075 1772 c-13 -13 -3 -29 17 -28 26 1 25 7 27 -126 0 -56 4 -99 7
-96 10 11 5 210 -7 224 -8 10 -4 15 23 22 32 10 32 10 -14 10 -26 0 -50 -3
-53 -6z m35 -6 c0 -3 -4 -8 -10 -11 -5 -3 -10 -1 -10 4 0 6 5 11 10 11 6 0 10
-2 10 -4z"/>
<path d="M5235 1773 c55 -5 73 -12 57 -22 -9 -5 -4 -11 15 -19 26 -11 27 -11
9 3 -11 8 -14 15 -7 15 9 0 8 4 -3 15 -9 10 -31 14 -63 13 -46 -1 -47 -1 -8
-5z"/>
<path d="M5350 1771 c0 -6 5 -13 10 -16 6 -3 10 1 10 9 0 9 -4 16 -10 16 -5 0
-10 -4 -10 -9z"/>
<path d="M5410 1760 c0 -11 5 -20 10 -20 6 0 9 6 8 13 -2 8 16 14 52 18 l55 6
-62 1 c-57 2 -63 0 -63 -18z"/>
<path d="M5537 1766 c-3 -8 -3 -17 0 -20 10 -10 33 -7 33 5 0 6 -7 8 -16 5
-14 -5 -15 -4 -4 9 7 8 8 15 2 15 -5 0 -12 -6 -15 -14z"/>
<path d="M5632 1760 c0 -14 2 -19 5 -12 2 6 2 18 0 25 -3 6 -5 1 -5 -13z"/>
<path d="M5706 1771 c-4 -5 3 -7 13 -4 13 3 21 -1 24 -14 4 -15 5 -14 6 5 1
16 -5 22 -18 22 -11 0 -22 -4 -25 -9z"/>
<path d="M5773 1763 c1 -27 6 -28 33 -8 12 8 24 11 28 8 3 -3 6 -2 6 4 0 6
-12 11 -26 11 -18 0 -22 -3 -13 -9 11 -7 10 -9 -3 -9 -9 0 -18 6 -21 13 -3 6
-4 2 -4 -10z"/>
<path d="M6039 1773 c19 -4 21 -7 10 -14 -11 -7 -11 -9 4 -9 9 0 17 7 17 15 0
10 -9 15 -27 14 -26 -2 -27 -2 -4 -6z"/>
<path d="M6090 1760 c0 -13 7 -20 18 -20 11 0 24 -10 31 -22 6 -13 10 -16 7
-7 -2 9 1 22 7 28 9 9 8 10 -7 5 -13 -5 -17 -4 -13 3 5 7 0 9 -13 6 -22 -6
-28 12 -7 20 7 3 5 6 -5 6 -12 1 -18 -6 -18 -19z"/>
<path d="M6168 1773 c7 -3 16 -2 19 1 4 3 -2 6 -13 5 -11 0 -14 -3 -6 -6z"/>
<path d="M6223 1773 c9 -2 25 -2 35 0 9 3 1 5 -18 5 -19 0 -27 -2 -17 -5z"/>
<path d="M6283 1762 c0 -10 6 -19 13 -19 7 0 10 6 7 14 -8 20 22 15 42 -7 16
-18 14 -24 -6 -22 -4 1 -15 -8 -25 -19 -13 -15 -14 -20 -4 -17 8 2 14 -2 15
-9 0 -6 3 -14 7 -18 9 -9 5 16 -5 33 -5 6 -4 12 2 12 5 0 12 -4 15 -9 8 -12
46 -2 46 13 0 6 -10 17 -21 25 -18 11 -19 15 -8 23 11 8 10 9 -3 4 -10 -3 -18
-1 -18 4 0 6 -13 10 -29 10 -23 0 -29 -4 -28 -18z m86 -53 c-16 -10 -23 -4
-14 10 3 6 11 8 17 5 6 -4 5 -9 -3 -15z"/>
<path d="M6538 1755 c-3 -14 -1 -25 3 -25 5 0 9 11 9 25 0 14 -2 25 -4 25 -2
0 -6 -11 -8 -25z"/>
<path d="M6600 1771 c28 -4 44 -11 43 -18 -2 -7 2 -13 8 -13 6 0 7 -5 2 -12
-11 -18 -13 -39 -3 -33 5 3 13 -7 19 -22 l11 -28 -5 30 c-11 66 -15 78 -26 91
-7 8 -28 13 -53 12 l-41 -1 45 -6z"/>
<path d="M4801 1752 c-7 -12 -10 -22 -7 -22 3 0 -1 -12 -9 -27 -14 -27 -11
-48 5 -38 5 3 7 12 4 19 -3 8 4 23 16 34 17 15 20 25 12 38 -9 16 -10 16 -21
-4z"/>
<path d="M4840 1761 c0 -10 29 -36 34 -30 1 2 -6 12 -16 22 -10 9 -18 13 -18
8z"/>
<path d="M5910 1762 c0 -5 7 -9 15 -9 8 0 12 4 9 9 -3 4 -9 8 -15 8 -5 0 -9
-4 -9 -8z"/>
<path d="M4920 1751 l-35 -7 32 -5 c22 -4 34 -1 37 8 3 7 4 12 3 12 -1 -1 -18
-5 -37 -8z"/>
<path d="M5841 1748 c-25 -7 -31 -12 -21 -18 14 -9 44 2 55 20 3 6 5 10 3 9
-2 0 -18 -5 -37 -11z"/>
<path d="M5964 1753 c3 -6 0 -13 -6 -16 -7 -3 2 -4 20 -3 18 1 32 5 32 9 0 4
0 10 0 13 0 4 -6 2 -13 -5 -10 -8 -17 -7 -27 2 -9 8 -11 8 -6 0z"/>
<path d="M5029 1723 c-1 -16 -1 -34 0 -42 2 -8 -2 -10 -10 -5 -8 4 -10 3 -5
-4 14 -24 23 -11 24 33 1 48 -7 64 -9 18z"/>
<path d="M5193 1735 c-3 -9 -3 -19 1 -22 3 -4 6 1 6 10 0 8 6 18 13 20 9 4 9
6 -1 6 -7 1 -15 -6 -19 -14z"/>
<path d="M5238 1743 c6 -2 18 -2 25 0 6 3 1 5 -13 5 -14 0 -19 -2 -12 -5z"/>
<path d="M5447 1737 c3 -6 5 -61 4 -124 -2 -105 5 -133 25 -101 5 7 3 8 -5 4
-9 -6 -12 9 -9 63 2 71 10 102 21 84 7 -12 4 -34 -7 -52 -6 -9 -5 -12 2 -7 7
4 12 -14 15 -56 2 -35 3 -17 3 39 0 56 -3 97 -7 91 -6 -9 -25 47 -21 63 0 3
-5 6 -13 6 -8 0 -11 -5 -8 -10z m20 -59 c-3 -8 -6 -5 -6 6 -1 11 2 17 5 13 3
-3 4 -12 1 -19z"/>
<path d="M6600 1746 c0 -2 7 -9 15 -16 9 -7 15 -8 15 -2 0 5 -7 12 -15 16 -8
3 -15 4 -15 2z"/>
<path d="M5669 1697 c3 -31 6 -37 11 -22 7 20 2 52 -9 59 -3 3 -5 -14 -2 -37z"/>
<path d="M5916 1732 c-3 -5 1 -9 9 -9 8 0 12 4 9 9 -3 4 -7 8 -9 8 -2 0 -6 -4
-9 -8z"/>
<path d="M6052 1715 c5 -26 -6 -35 -15 -12 -3 6 -6 2 -6 -10 -1 -13 4 -23 10
-23 5 0 7 -5 3 -11 -4 -7 -1 -10 7 -7 16 5 23 88 7 88 -6 0 -8 -11 -6 -25z"/>
<path d="M6207 1724 c4 -11 2 -15 -4 -11 -6 4 -19 -3 -29 -14 -17 -19 -17 -20
2 -14 19 7 19 6 0 -9 -15 -12 -16 -16 -5 -16 29 0 62 61 39 75 -6 4 -7 -1 -3
-11z"/>
<path d="M4830 1715 c-7 -8 -8 -15 -4 -15 15 0 65 -51 59 -60 -3 -5 -1 -11 5
-15 5 -3 10 1 10 9 0 9 6 16 13 17 7 0 7 3 -3 7 -30 14 -70 44 -70 54 0 5 5 6
12 2 7 -4 8 -3 4 4 -9 15 -11 15 -26 -3z"/>
<path d="M5551 1716 c-8 -10 -9 -16 -1 -21 6 -4 10 -3 9 2 -4 20 2 24 18 12
14 -12 16 -12 12 0 -7 21 -24 24 -38 7z"/>
<path d="M5698 1725 c-3 -3 -3 -27 0 -53 4 -41 3 -45 -10 -35 -13 11 -15 8
-16 -22 -1 -19 3 -35 9 -35 6 0 8 7 5 16 -3 8 -2 12 4 9 16 -10 13 -152 -4
-158 -9 -4 -16 4 -20 24 -3 16 -11 29 -18 29 -9 0 -9 -3 0 -12 16 -16 15 -47
-2 -44 -8 1 -22 8 -32 16 -16 14 -16 13 -3 -7 11 -19 22 -23 57 -21 l43 1 -2
149 c0 81 -2 148 -3 148 -2 0 -5 -2 -8 -5z"/>
<path d="M5795 1710 c-3 -5 -4 -14 0 -19 3 -5 0 -13 -6 -17 -7 -4 -9 -3 -6 2
3 6 1 16 -4 24 -6 11 -9 6 -7 -17 2 -23 7 -31 20 -30 10 1 18 9 18 18 0 10 3
24 6 33 7 17 -11 22 -21 6z"/>
<path d="M6596 1711 c-4 -5 -2 -12 3 -15 5 -4 12 -2 15 3 4 5 2 12 -3 15 -5 4
-12 2 -15 -3z"/>
<path d="M4980 1700 c0 -5 5 -10 11 -10 5 0 7 5 4 10 -3 6 -8 10 -11 10 -2 0
-4 -4 -4 -10z"/>
<path d="M5326 1701 c-11 -16 4 -37 27 -38 l22 -2 -21 12 c-12 7 -19 18 -17
25 5 14 -3 16 -11 3z"/>
<path d="M5917 1696 c-4 -9 -3 -15 2 -11 5 3 11 1 13 -4 1 -5 10 -2 18 7 13
14 12 15 -2 9 -9 -3 -18 -1 -21 6 -2 6 -6 3 -10 -7z"/>
<path d="M5517 1693 c-10 -18 26 -112 46 -121 4 -2 4 -9 0 -14 -4 -7 2 -9 18
-5 22 5 22 5 7 -7 -22 -17 -23 -32 -2 -40 13 -5 14 -4 6 7 -9 10 -7 17 8 29
22 20 35 11 17 -11 -11 -14 -10 -14 6 -2 13 11 17 11 17 1 0 -8 3 -10 6 -7 4
4 1 13 -6 22 -8 10 -9 15 -1 15 6 0 11 7 11 15 0 8 -7 15 -16 15 -10 0 -13 6
-10 18 3 9 -3 31 -14 47 -11 17 -20 24 -20 18 0 -7 -7 -13 -15 -13 -8 0 -15
-7 -15 -16 0 -14 1 -14 16 0 8 9 21 13 27 9 7 -4 4 -9 -9 -14 -10 -4 -13 -8
-6 -8 8 -1 10 -6 6 -13 -6 -10 -5 -10 7 -1 11 9 14 6 15 -18 1 -16 -1 -27 -4
-24 -3 3 -11 0 -17 -5 -9 -7 -16 -6 -25 5 -7 8 -9 15 -6 15 4 0 -2 9 -12 21
-12 12 -18 31 -17 50 2 28 -9 48 -18 32z"/>
<path d="M5191 1674 c0 -11 3 -14 6 -6 3 7 2 16 -1 19 -3 4 -6 -2 -5 -13z"/>
<path d="M5260 1673 c-13 -15 -12 -16 3 -10 9 3 17 2 17 -3 0 -4 -14 -11 -31
-15 -40 -9 -32 -17 9 -9 25 5 32 12 32 30 0 28 -9 30 -30 7z"/>
<path d="M6370 1665 c0 -15 4 -24 10 -20 6 3 10 12 10 20 0 8 -4 17 -10 20 -6
4 -10 -5 -10 -20z"/>
<path d="M5953 1620 c0 -36 2 -50 4 -32 2 17 2 47 0 65 -2 17 -4 3 -4 -33z"/>
<path d="M6144 1595 c0 -49 1 -71 3 -48 2 23 2 64 0 90 -2 26 -3 8 -3 -42z"/>
<path d="M6296 1664 c-8 -20 11 -44 33 -43 10 0 8 3 -7 10 -18 7 -22 14 -17
29 8 24 0 27 -9 4z"/>
<path d="M6521 1667 c-6 -8 -13 -29 -16 -48 -4 -27 -4 -30 4 -13 5 12 14 25
20 28 6 4 7 14 4 24 -6 14 -4 15 9 4 12 -9 18 -10 23 -2 4 6 4 14 1 17 -3 4
-6 1 -6 -7 0 -9 -3 -10 -14 -1 -10 8 -16 8 -25 -2z"/>
<path d="M6619 1673 c-1 -5 -1 -11 0 -15 2 -13 -17 -9 -22 5 -3 6 -3 -4 0 -23
3 -19 9 -39 14 -44 5 -5 7 0 4 13 -3 18 -1 20 9 12 10 -8 12 -6 10 12 -1 12
-3 24 -4 27 -1 3 -2 8 -1 13 0 4 -1 7 -4 7 -3 0 -6 -3 -6 -7z"/>
<path d="M6190 1648 c-12 -8 -12 -9 2 -4 10 3 22 -2 27 -12 6 -9 11 -12 11 -6
0 20 -24 34 -40 22z"/>
<path d="M4954 1633 c2 -10 11 -18 22 -18 10 0 25 -4 32 -8 7 -5 12 -4 12 2 0
6 -9 15 -20 21 -11 6 -20 8 -20 4 0 -3 -6 -1 -14 5 -12 10 -14 9 -12 -6z"/>
<path d="M6250 1630 c20 -13 33 -13 25 0 -3 6 -14 10 -23 10 -15 0 -15 -2 -2
-10z"/>
<path d="M6540 1622 c-8 -9 -15 -25 -17 -36 -1 -12 1 -15 3 -8 3 6 11 9 16 6
7 -4 8 -2 4 5 -4 6 -2 19 5 27 16 20 7 26 -11 6z"/>
<path d="M6678 1628 c5 -7 9 -29 7 -48 -2 -30 -1 -32 7 -13 12 25 3 73 -13 73
-8 0 -8 -4 -1 -12z"/>
<path d="M4790 1621 c0 -5 7 -14 15 -21 8 -7 15 -9 15 -5 0 5 9 0 20 -10 18
-16 20 -16 15 -2 -4 9 -15 19 -26 22 -10 4 -19 11 -19 16 0 5 -4 9 -10 9 -5 0
-10 -4 -10 -9z"/>
<path d="M5267 1624 c-4 -4 -3 -12 0 -18 10 -16 11 -46 1 -46 -5 0 -15 15 -23
33 -8 17 -14 26 -15 19 0 -7 -4 -11 -9 -8 -5 3 -14 0 -20 -8 -9 -11 -6 -12 13
-9 19 4 25 -1 34 -27 16 -45 36 -33 40 23 3 43 -5 57 -21 41z"/>
<path d="M6185 1620 c3 -5 8 -10 11 -10 2 0 4 5 4 10 0 6 -5 10 -11 10 -5 0
-7 -4 -4 -10z"/>
<path d="M6241 1608 c-1 -11 6 -16 19 -15 11 1 20 5 20 10 0 5 -6 7 -14 4 -8
-3 -17 -1 -20 6 -2 7 -5 5 -5 -5z"/>
<path d="M4905 1599 c3 -3 -4 -9 -15 -12 -27 -7 -25 -24 3 -30 12 -2 29 -7 37
-9 8 -3 12 -3 8 -1 -15 9 -8 25 8 19 8 -3 12 -2 9 4 -3 6 -1 10 4 10 6 0 11 5
11 11 0 5 -4 8 -9 5 -5 -4 -11 -3 -14 1 -2 5 -2 3 -1 -4 3 -13 -21 -25 -30
-16 -3 4 -1 11 4 18 7 8 5 12 -5 12 -8 0 -12 -4 -10 -8z m9 -28 c4 -5 -3 -7
-14 -4 -23 6 -26 13 -6 13 8 0 17 -4 20 -9z"/>
<path d="M5884 1555 c1 -37 5 -50 16 -50 8 0 15 -6 15 -14 0 -8 7 -16 15 -18
13 -4 13 -3 0 6 -8 6 -11 11 -6 11 5 0 3 7 -4 15 -7 8 -16 12 -21 10 -4 -3
-10 16 -12 42 l-4 48 1 -50z"/>
<path d="M6313 1598 c-2 -5 1 -7 8 -6 7 2 19 -8 26 -22 l14 -25 -4 27 c-2 15
0 25 4 22 5 -3 9 0 9 5 0 12 -49 11 -57 -1z"/>
<path d="M6575 1580 c4 -6 11 -8 16 -5 14 9 11 15 -7 15 -8 0 -12 -5 -9 -10z"/>
<path d="M6660 1565 c0 -14 2 -25 4 -25 2 0 6 11 8 25 3 14 1 25 -3 25 -5 0
-9 -11 -9 -25z"/>
<path d="M6163 1565 c0 -8 3 -13 5 -10 3 3 12 -1 21 -7 10 -8 9 -4 -3 10 -23
26 -23 26 -23 7z"/>
<path d="M6486 1564 c-4 -9 -4 -19 -1 -22 3 -3 5 0 5 6 0 6 6 10 13 8 6 -1 9
-1 4 1 -4 3 -5 9 -1 14 3 5 1 9 -4 9 -6 0 -13 -7 -16 -16z"/>
<path d="M5038 1563 c-5 -25 -4 -62 1 -58 8 4 13 65 6 65 -3 0 -6 -3 -7 -7z"/>
<path d="M5330 1554 c0 -13 3 -14 14 -5 8 7 16 8 19 4 8 -13 3 -77 -7 -92 -7
-10 -5 -12 5 -6 8 5 11 4 6 0 -10 -12 -57 -13 -50 -1 4 5 0 6 -8 1 -19 -13
-49 -14 -42 -2 4 6 1 7 -8 1 -8 -5 -44 -9 -80 -9 -53 0 -66 3 -65 15 1 8 -9
16 -21 18 -19 3 -23 -1 -23 -22 l0 -26 154 0 153 0 -1 68 c-1 62 -3 67 -23 70
-16 2 -23 -2 -23 -14z m-220 -93 c0 -5 -7 -11 -14 -14 -10 -4 -13 -1 -9 9 6
15 23 19 23 5z"/>
<path d="M6293 1525 c3 -52 20 -95 38 -95 6 0 7 5 4 10 -4 6 -1 19 7 28 11 15
11 15 -2 5 -20 -16 -42 -3 -30 17 8 13 10 13 10 1 0 -8 3 -11 7 -8 3 4 -2 16
-11 26 -10 11 -16 24 -13 28 3 5 1 15 -4 23 -6 10 -8 -1 -6 -35z"/>
<path d="M6543 1564 c3 -4 0 -12 -8 -18 -12 -8 -3 -11 39 -11 51 0 65 11 41
32 -4 4 -5 2 -1 -4 9 -16 -13 -17 -51 -2 -15 5 -24 7 -20 3z"/>
<path d="M4790 1495 c0 -58 2 -65 20 -65 24 0 26 13 5 30 -8 7 -15 19 -15 26
0 19 24 18 40 -1 7 -8 9 -15 4 -15 -4 0 1 -7 12 -15 18 -15 18 -15 0 -8 -13 4
-17 3 -12 -5 4 -7 17 -12 28 -12 20 0 20 1 5 18 -10 10 -17 24 -17 30 0 7 -5
12 -11 12 -5 0 -7 6 -3 13 4 6 4 9 -1 5 -10 -9 -45 9 -45 24 0 7 5 6 15 -2 18
-15 20 1 3 18 -22 22 -28 12 -28 -53z"/>
<path d="M6215 1527 c1 -40 11 -57 33 -56 15 1 15 2 0 6 -13 3 -18 15 -18 44
0 21 -3 39 -7 39 -5 0 -8 -15 -8 -33z"/>
<path d="M6373 1553 c4 -3 1 -13 -6 -21 -9 -13 -9 -14 1 -8 8 5 12 0 12 -18 0
-13 -5 -26 -12 -28 -8 -3 -7 -6 3 -10 13 -5 16 3 16 43 1 28 -4 49 -10 49 -6
0 -7 -3 -4 -7z"/>
<path d="M6703 1548 c4 -13 1 -18 -11 -19 -13 0 -11 -3 6 -9 12 -6 22 -18 22
-30 0 -11 7 -20 15 -20 8 0 15 -5 15 -11 0 -6 -7 -9 -15 -5 -8 3 -15 1 -15 -5
0 -6 -9 -8 -19 -4 -41 13 -111 12 -111 -2 0 -10 21 -13 85 -13 84 0 85 0 85
25 0 15 -6 25 -14 25 -12 0 -21 17 -31 58 -2 8 -7 17 -11 20 -4 4 -4 -1 -1
-10z"/>
<path d="M5665 1540 c-3 -6 1 -7 9 -4 18 7 21 14 7 14 -6 0 -13 -4 -16 -10z"/>
<path d="M5320 1515 c0 -8 4 -15 10 -15 5 0 7 7 4 15 -4 8 -8 15 -10 15 -2 0
-4 -7 -4 -15z"/>
<path d="M5946 1515 c4 -11 6 -28 6 -37 0 -12 6 -15 26 -12 15 3 29 8 32 11 3
3 -4 3 -15 1 -14 -3 -25 5 -38 27 -10 16 -15 21 -11 10z"/>
<path d="M6182 1514 c-7 -8 -8 -14 -3 -14 10 0 25 19 20 25 -2 1 -10 -3 -17
-11z"/>
<path d="M6320 1526 c0 -2 8 -10 18 -17 15 -13 16 -12 3 4 -13 16 -21 21 -21
13z"/>
<path d="M6417 1516 c-4 -10 -1 -13 8 -9 8 3 12 9 9 14 -7 12 -11 11 -17 -5z"/>
<path d="M6475 1520 c-3 -5 -1 -10 4 -10 6 0 11 5 11 10 0 6 -2 10 -4 10 -3 0
-8 -4 -11 -10z"/>
<path d="M5002 1509 c2 -6 -3 -14 -11 -17 -8 -2 -11 0 -8 5 3 5 -1 10 -9 10
-13 0 -13 -2 1 -16 13 -14 17 -14 31 1 11 11 13 18 5 23 -6 3 -10 1 -9 -6z"/>
<path d="M6488 1503 c-10 -2 -18 -9 -18 -14 0 -5 -8 -9 -17 -10 -10 0 -13 -3
-7 -5 7 -3 27 4 45 15 33 20 32 23 -3 14z"/>
<path d="M5875 1482 c3 -21 -14 -44 -27 -36 -5 3 -4 12 3 20 9 11 8 14 -5 14
-10 0 -16 -9 -16 -25 0 -25 1 -25 90 -25 73 0 90 3 90 15 0 8 -5 15 -11 15 -5
0 -7 -5 -3 -11 4 -7 -1 -7 -16 1 -18 10 -21 9 -15 -1 6 -8 4 -10 -6 -3 -20 12
-59 13 -59 1 0 -14 -15 2 -15 16 -1 7 3 15 8 18 5 3 2 9 -6 12 -10 4 -14 0
-12 -11z"/>
<path d="M5310 1486 c0 -2 6 -9 13 -15 10 -8 14 -7 14 4 0 8 -6 15 -14 15 -7
0 -13 -2 -13 -4z"/>
<path d="M5470 1480 c0 -7 -3 -11 -6 -7 -4 3 -15 -4 -25 -16 -15 -18 -18 -19
-19 -5 0 9 6 19 13 21 7 3 5 6 -5 6 -13 1 -18 -7 -18 -24 0 -24 2 -25 64 -25
61 0 64 1 64 24 0 19 -3 22 -13 13 -7 -7 -9 -14 -4 -17 4 -3 -12 -6 -37 -6
-45 0 -45 0 -22 17 12 10 19 21 15 25 -4 4 -7 1 -7 -6z"/>
<path d="M5598 1483 c6 -2 18 -2 25 0 6 3 1 5 -13 5 -14 0 -19 -2 -12 -5z"/>
<path d="M6136 1481 c-3 -5 -15 -7 -26 -4 -17 4 -20 1 -18 -21 2 -26 3 -26 85
-26 67 0 83 3 83 15 0 8 -5 15 -11 15 -5 0 -8 -4 -5 -9 7 -11 -123 -6 -135 6
-4 4 3 9 16 9 15 1 22 -2 18 -9 -3 -6 -1 -7 5 -3 6 4 9 13 5 21 -6 17 -10 18
-17 6z"/>
<path d="M6176 1478 c3 -5 10 -6 15 -3 13 9 11 12 -6 12 -8 0 -12 -4 -9 -9z"/>
<path d="M6492 1474 c-13 -9 -19 -20 -15 -27 4 -7 0 -6 -10 2 -14 11 -17 11
-17 0 -1 -9 -4 -8 -11 4 -8 14 -14 16 -25 6 -16 -13 -19 -29 -5 -29 5 0 12 8
14 18 4 16 5 16 6 0 1 -15 11 -18 66 -18 63 0 65 1 65 25 0 15 -6 25 -14 25
-23 0 -28 -18 -9 -30 17 -10 16 -10 -2 -8 -11 2 -23 8 -27 13 -5 6 -8 5 -8 -3
0 -7 -5 -10 -11 -6 -8 4 -4 13 12 25 29 23 22 25 -9 3z"/>
<path d="M4962 1469 c9 -5 15 -15 12 -23 -3 -7 1 -13 8 -13 8 0 14 8 14 18 0
10 -4 16 -7 13 -4 -2 -10 0 -14 6 -3 5 -12 10 -18 10 -7 0 -4 -5 5 -11z"/>
<path d="M5260 1473 c8 -3 21 -10 28 -16 9 -7 11 -6 6 7 -3 9 -16 16 -28 15
-14 0 -16 -2 -6 -6z"/>
<path d="M6598 1473 c7 -3 16 -2 19 1 4 3 -2 6 -13 5 -11 0 -14 -3 -6 -6z"/>
<path d="M4896 1461 c-3 -4 6 -6 19 -3 14 2 25 6 25 8 0 8 -39 4 -44 -5z"/>
<path d="M4907 1438 c-3 -10 3 -14 24 -14 29 0 38 9 20 20 -5 4 -12 0 -14 -6
-4 -10 -7 -10 -15 0 -8 11 -10 11 -15 0z"/>
<path d="M6360 1430 c-12 -7 -10 -9 8 -7 12 0 22 5 22 9 0 11 -12 10 -30 -2z"/>
</g>
</svg>
